<mxfile host="app.diagrams.net" modified="2023-07-25T09:43:24.912Z" agent="Mozilla/5.0 (X11; Linux x86_64; rv:109.0) Gecko/20100101 Firefox/115.0" etag="A0G2f607QwloGQEXszPy" version="21.6.5" type="device">
  <diagram name="Page-1" id="BNF3M9rtbsKgMsUSW2zc">
    <mxGraphModel dx="777" dy="392" grid="1" gridSize="10" guides="1" tooltips="1" connect="1" arrows="1" fold="1" page="1" pageScale="1" pageWidth="850" pageHeight="1100" math="0" shadow="0">
      <root>
        <mxCell id="0" />
        <mxCell id="1" parent="0" />
        <mxCell id="56IS_CkzRSD5CIcndW4N-1" value="Usuario" style="shape=umlActor;verticalLabelPosition=bottom;verticalAlign=top;html=1;outlineConnect=0;fontSize=10;" parent="1" vertex="1">
          <mxGeometry x="170" y="277.5" width="30" height="60" as="geometry" />
        </mxCell>
        <mxCell id="56IS_CkzRSD5CIcndW4N-2" value="INTERFAZ DE USUARIO" style="rounded=1;whiteSpace=wrap;html=1;labelPosition=center;verticalLabelPosition=top;align=center;verticalAlign=bottom;fontSize=10;fontStyle=1" parent="1" vertex="1">
          <mxGeometry x="240" y="230" width="570" height="220" as="geometry" />
        </mxCell>
        <mxCell id="56IS_CkzRSD5CIcndW4N-4" value="Subir un dataset" style="ellipse;whiteSpace=wrap;html=1;fontSize=10;fillColor=#d5e8d4;strokeColor=#82b366;" parent="1" vertex="1">
          <mxGeometry x="270" y="255" width="90" height="30" as="geometry" />
        </mxCell>
        <mxCell id="56IS_CkzRSD5CIcndW4N-12" value="&amp;lt;&amp;lt;extends&amp;gt;&amp;gt;" style="edgeStyle=orthogonalEdgeStyle;rounded=0;orthogonalLoop=1;jettySize=auto;html=1;labelPosition=center;verticalLabelPosition=bottom;align=center;verticalAlign=top;endArrow=openThin;endFill=0;startArrow=none;startFill=0;fontSize=8;dashed=1;" parent="1" source="56IS_CkzRSD5CIcndW4N-5" target="56IS_CkzRSD5CIcndW4N-4" edge="1">
          <mxGeometry relative="1" as="geometry">
            <Array as="points">
              <mxPoint x="390" y="270" />
              <mxPoint x="390" y="270" />
            </Array>
          </mxGeometry>
        </mxCell>
        <mxCell id="56IS_CkzRSD5CIcndW4N-5" value="Seleccionar un algoritmo" style="ellipse;whiteSpace=wrap;html=1;fontSize=10;fillColor=#d5e8d4;strokeColor=#82b366;" parent="1" vertex="1">
          <mxGeometry x="440" y="250" width="90" height="40" as="geometry" />
        </mxCell>
        <mxCell id="56IS_CkzRSD5CIcndW4N-6" value="Visualizar resultados" style="ellipse;whiteSpace=wrap;html=1;fontSize=10;fillColor=#d5e8d4;strokeColor=#82b366;" parent="1" vertex="1">
          <mxGeometry x="650" y="250" width="90" height="40" as="geometry" />
        </mxCell>
        <mxCell id="56IS_CkzRSD5CIcndW4N-7" value="Visualizar gráficas" style="ellipse;whiteSpace=wrap;html=1;fontSize=10;fillColor=#dae8fc;strokeColor=#6c8ebf;" parent="1" vertex="1">
          <mxGeometry x="600" y="330" width="90" height="40" as="geometry" />
        </mxCell>
        <mxCell id="56IS_CkzRSD5CIcndW4N-8" value="Visualizar lista detallada" style="ellipse;whiteSpace=wrap;html=1;fontSize=10;fillColor=#dae8fc;strokeColor=#6c8ebf;" parent="1" vertex="1">
          <mxGeometry x="700" y="330" width="90" height="40" as="geometry" />
        </mxCell>
        <mxCell id="56IS_CkzRSD5CIcndW4N-10" value="" style="endArrow=openThin;html=1;rounded=0;entryX=0;entryY=0.5;entryDx=0;entryDy=0;endFill=0;" parent="1" target="56IS_CkzRSD5CIcndW4N-4" edge="1">
          <mxGeometry width="50" height="50" relative="1" as="geometry">
            <mxPoint x="200" y="308" as="sourcePoint" />
            <mxPoint x="280" y="320" as="targetPoint" />
          </mxGeometry>
        </mxCell>
        <mxCell id="56IS_CkzRSD5CIcndW4N-16" value="&amp;lt;&amp;lt;includes&amp;gt;&amp;gt;" style="endArrow=none;html=1;rounded=0;entryX=0.5;entryY=1;entryDx=0;entryDy=0;exitX=0.5;exitY=0;exitDx=0;exitDy=0;fontSize=8;labelPosition=center;verticalLabelPosition=middle;align=center;verticalAlign=middle;horizontal=1;endFill=0;startArrow=openThin;startFill=0;dashed=1;" parent="1" source="56IS_CkzRSD5CIcndW4N-7" target="56IS_CkzRSD5CIcndW4N-6" edge="1">
          <mxGeometry width="50" height="50" relative="1" as="geometry">
            <mxPoint x="580" y="320" as="sourcePoint" />
            <mxPoint x="530" y="320" as="targetPoint" />
          </mxGeometry>
        </mxCell>
        <mxCell id="56IS_CkzRSD5CIcndW4N-17" value="&amp;lt;&amp;lt;includes&amp;gt;&amp;gt;" style="endArrow=none;html=1;rounded=0;entryX=0.5;entryY=1;entryDx=0;entryDy=0;exitX=0.5;exitY=0;exitDx=0;exitDy=0;fontSize=8;labelPosition=center;verticalLabelPosition=middle;align=center;verticalAlign=middle;horizontal=1;endFill=0;startArrow=openThin;startFill=0;dashed=1;" parent="1" source="56IS_CkzRSD5CIcndW4N-8" target="56IS_CkzRSD5CIcndW4N-6" edge="1">
          <mxGeometry width="50" height="50" relative="1" as="geometry">
            <mxPoint x="630" y="340" as="sourcePoint" />
            <mxPoint x="680" y="300" as="targetPoint" />
          </mxGeometry>
        </mxCell>
        <mxCell id="56IS_CkzRSD5CIcndW4N-19" value="&amp;lt;&amp;lt;extends&amp;gt;&amp;gt;" style="edgeStyle=orthogonalEdgeStyle;rounded=0;orthogonalLoop=1;jettySize=auto;html=1;labelPosition=center;verticalLabelPosition=bottom;align=center;verticalAlign=top;endArrow=openThin;endFill=0;startArrow=none;startFill=0;fontSize=8;exitX=0;exitY=0.5;exitDx=0;exitDy=0;entryX=1;entryY=0.5;entryDx=0;entryDy=0;dashed=1;" parent="1" source="56IS_CkzRSD5CIcndW4N-6" target="56IS_CkzRSD5CIcndW4N-5" edge="1">
          <mxGeometry relative="1" as="geometry">
            <mxPoint x="420" y="280" as="sourcePoint" />
            <mxPoint x="370" y="280" as="targetPoint" />
            <Array as="points">
              <mxPoint x="530" y="270" />
              <mxPoint x="530" y="270" />
            </Array>
          </mxGeometry>
        </mxCell>
        <mxCell id="56IS_CkzRSD5CIcndW4N-20" value="Ver ejemplos de datasets" style="ellipse;whiteSpace=wrap;html=1;fontSize=10;fillColor=#ffe6cc;strokeColor=#d79b00;" parent="1" vertex="1">
          <mxGeometry x="270" y="330" width="100" height="40" as="geometry" />
        </mxCell>
        <mxCell id="56IS_CkzRSD5CIcndW4N-21" value="" style="endArrow=openThin;html=1;rounded=0;entryX=0;entryY=0.5;entryDx=0;entryDy=0;endFill=0;" parent="1" source="56IS_CkzRSD5CIcndW4N-1" target="56IS_CkzRSD5CIcndW4N-20" edge="1">
          <mxGeometry width="50" height="50" relative="1" as="geometry">
            <mxPoint x="210" y="370" as="sourcePoint" />
            <mxPoint x="280" y="280" as="targetPoint" />
          </mxGeometry>
        </mxCell>
        <mxCell id="56IS_CkzRSD5CIcndW4N-25" value="Mostrar información de rendimiento" style="ellipse;whiteSpace=wrap;html=1;fontSize=9;fillColor=#e1d5e7;strokeColor=#9673a6;" parent="1" vertex="1">
          <mxGeometry x="390" y="325" width="90" height="50" as="geometry" />
        </mxCell>
        <mxCell id="56IS_CkzRSD5CIcndW4N-26" value="Mostrar información de funcionamiento" style="ellipse;whiteSpace=wrap;html=1;fontSize=9;fillColor=#e1d5e7;strokeColor=#9673a6;" parent="1" vertex="1">
          <mxGeometry x="490" y="325" width="90" height="50" as="geometry" />
        </mxCell>
        <mxCell id="56IS_CkzRSD5CIcndW4N-27" value="&amp;lt;&amp;lt;includes&amp;gt;&amp;gt;" style="endArrow=none;html=1;rounded=0;entryX=0.5;entryY=1;entryDx=0;entryDy=0;exitX=0.5;exitY=0;exitDx=0;exitDy=0;fontSize=8;labelPosition=center;verticalLabelPosition=middle;align=center;verticalAlign=middle;horizontal=1;endFill=0;startArrow=openThin;startFill=0;dashed=1;" parent="1" source="56IS_CkzRSD5CIcndW4N-25" target="56IS_CkzRSD5CIcndW4N-5" edge="1">
          <mxGeometry width="50" height="50" relative="1" as="geometry">
            <mxPoint x="605" y="340" as="sourcePoint" />
            <mxPoint x="655" y="300" as="targetPoint" />
          </mxGeometry>
        </mxCell>
        <mxCell id="56IS_CkzRSD5CIcndW4N-28" value="&amp;lt;&amp;lt;includes&amp;gt;&amp;gt;" style="endArrow=none;html=1;rounded=0;entryX=0.5;entryY=1;entryDx=0;entryDy=0;exitX=0.5;exitY=0;exitDx=0;exitDy=0;fontSize=8;labelPosition=center;verticalLabelPosition=middle;align=center;verticalAlign=middle;horizontal=1;endFill=0;startArrow=openThin;startFill=0;dashed=1;" parent="1" source="56IS_CkzRSD5CIcndW4N-26" target="56IS_CkzRSD5CIcndW4N-5" edge="1">
          <mxGeometry width="50" height="50" relative="1" as="geometry">
            <mxPoint x="405" y="340" as="sourcePoint" />
            <mxPoint x="465" y="300" as="targetPoint" />
          </mxGeometry>
        </mxCell>
        <mxCell id="AqrmpcORKWWD2m7jNTEU-1" value="Reordenar lista" style="ellipse;whiteSpace=wrap;html=1;fontSize=9;fillColor=#fff2cc;strokeColor=#d6b656;" vertex="1" parent="1">
          <mxGeometry x="700" y="400" width="90" height="30" as="geometry" />
        </mxCell>
        <mxCell id="AqrmpcORKWWD2m7jNTEU-2" value="&amp;lt;&amp;lt;extends&amp;gt;&amp;gt;" style="rounded=0;orthogonalLoop=1;jettySize=auto;html=1;labelPosition=center;verticalLabelPosition=bottom;align=center;verticalAlign=top;endArrow=openThin;endFill=0;startArrow=none;startFill=0;fontSize=8;exitX=0.5;exitY=0;exitDx=0;exitDy=0;entryX=0.5;entryY=1;entryDx=0;entryDy=0;dashed=1;horizontal=1;spacingBottom=0;spacing=-3;spacingRight=8;" edge="1" parent="1" source="AqrmpcORKWWD2m7jNTEU-1" target="56IS_CkzRSD5CIcndW4N-8">
          <mxGeometry x="0.3333" y="-5" relative="1" as="geometry">
            <mxPoint x="830" y="380" as="sourcePoint" />
            <mxPoint x="710" y="380" as="targetPoint" />
            <mxPoint as="offset" />
          </mxGeometry>
        </mxCell>
      </root>
    </mxGraphModel>
  </diagram>
</mxfile>
